<svg width="512" height="512" viewBox="0 0 512 512" fill="none" xmlns="http://www.w3.org/2000/svg">
  <!-- 文件夹底部 -->
  <path d="M64 128C64 110.327 78.327 96 96 96H416C433.673 96 448 110.327 448 128V384C448 401.673 433.673 416 416 416H96C78.327 416 64 401.673 64 384V128Z" fill="#409EFF"/>
  
  <!-- 文件夹顶部 -->
  <path d="M96 96H192L224 64H416C433.673 64 448 78.327 448 96H96Z" fill="#2C90FF"/>
  
  <!-- 清理图标 -->
  <g transform="translate(256 256) scale(0.7) translate(-256 -256)">
    <path d="M371.293 140.707C348.521 117.935 318.521 103.999 286.002 100.991C253.483 97.983 221.203 106.068 194.398 124.069C167.594 142.07 147.806 168.849 137.909 200.002C128.013 231.156 128.53 264.67 139.376 295.555C150.223 326.441 170.849 352.721 198.283 370.054C225.718 387.387 258.397 394.657 290.984 390.802C323.571 386.947 353.938 372.225 377.203 348.704C400.469 325.183 415.064 294.063 418.826 260.747" stroke="#FFFFFF" stroke-width="48" stroke-linecap="round"/>
    
    <!-- 箭头 -->
    <path d="M448 256L368 176M448 256L368 336" stroke="#FFFFFF" stroke-width="48" stroke-linecap="round" stroke-linejoin="round"/>
  </g>
</svg>